<?xml version="1.0" standalone="no"?>
<!DOCTYPE svg PUBLIC "-//W3C//DTD SVG 20010904//EN"
 "http://www.w3.org/TR/2001/REC-SVG-20010904/DTD/svg10.dtd">
<svg version="1.0" xmlns="http://www.w3.org/2000/svg"
 width="1080.000000pt" height="1080.000000pt" viewBox="0 0 1080.000000 1080.000000"
 preserveAspectRatio="xMidYMid meet">

<g transform="translate(0.000000,1080.000000) scale(0.100000,-0.100000)"
fill="#000000" stroke="none">
<path d="M4398 8060 c-155 -25 -330 -97 -440 -182 -276 -214 -275 -546 2 -968
131 -199 252 -343 510 -609 134 -137 464 -426 680 -595 181 -142 217 -166 246
-166 23 0 237 155 399 289 636 524 1043 982 1187 1335 138 336 63 592 -223
761 -161 95 -348 142 -519 132 -126 -8 -231 -36 -355 -96 -158 -75 -246 -139
-396 -288 l-87 -85 -93 94 c-192 193 -405 320 -610 363 -93 20 -228 26 -301
15z m327 -153 c203 -62 397 -197 567 -394 67 -78 85 -93 109 -93 20 0 36 9 51
28 12 15 74 79 138 142 162 162 293 247 470 306 77 25 98 28 230 28 137 1 150
-1 232 -30 179 -64 316 -166 367 -274 23 -48 26 -68 26 -160 0 -123 -18 -188
-98 -344 -100 -197 -267 -406 -542 -682 -264 -265 -533 -495 -871 -746 -16
-12 -244 165 -528 412 -165 143 -503 482 -612 613 -168 205 -295 412 -355 577
-18 53 -23 86 -23 175 -1 100 1 115 26 165 63 128 248 249 452 296 91 21 260
12 361 -19z"/>
<path d="M2522 7245 c-57 -48 -65 -85 -70 -351 -4 -216 5 -422 25 -546 4 -31
2 -39 -13 -44 -106 -38 -150 -162 -108 -305 23 -77 96 -215 170 -320 64 -89
64 -90 84 -212 25 -143 103 -527 131 -642 34 -142 75 -227 146 -306 80 -89
348 -294 650 -498 176 -119 277 -217 347 -337 60 -103 82 -168 67 -200 -13
-28 -14 -181 -4 -459 l6 -190 28 -27 27 -28 299 1 c164 1 417 4 561 8 l264 6
25 29 25 29 -4 316 c-3 174 -8 324 -12 334 -11 23 -58 47 -94 47 l-29 0 -12
98 c-50 391 -184 753 -367 988 -127 164 -219 227 -510 355 -451 197 -586 292
-777 548 -55 75 -145 193 -199 264 l-99 127 -35 183 c-139 722 -255 1086 -364
1142 -47 24 -123 20 -158 -10z m131 -153 c60 -111 140 -392 218 -765 21 -103
39 -192 39 -198 0 -6 -24 10 -52 34 -67 57 -170 123 -213 137 -24 8 -35 18
-39 38 -8 42 -25 243 -31 382 -6 123 7 399 19 419 12 18 33 1 59 -47z m-53
-972 c33 -39 60 -76 60 -83 0 -6 -17 -26 -38 -43 l-38 -32 -57 68 c-65 77 -71
107 -31 139 15 12 30 21 35 21 4 0 35 -32 69 -70z m312 -197 c105 -120 170
-202 323 -408 141 -190 256 -308 385 -394 125 -84 266 -154 582 -291 53 -23
124 -60 159 -82 184 -120 342 -355 440 -658 43 -130 93 -357 105 -471 l7 -67
-394 -7 c-217 -4 -402 -6 -412 -4 -12 3 -28 29 -47 75 -84 209 -206 345 -478
530 -338 230 -560 404 -627 491 -19 25 -44 70 -56 101 -29 77 -146 618 -136
628 2 2 43 -40 92 -93 48 -54 135 -147 192 -206 114 -118 145 -135 182 -98 41
41 29 66 -82 180 -151 155 -224 236 -329 363 -95 113 -228 290 -228 302 0 3 7
6 15 6 23 0 184 148 191 176 3 13 11 24 18 24 6 0 50 -44 98 -97z m2138 -2751
l0 -249 -142 -6 c-79 -4 -298 -7 -488 -7 l-345 -1 -3 250 -2 250 132 4 c73 1
294 4 491 5 l357 2 0 -248z"/>
<path d="M8114 7251 c-107 -65 -221 -427 -358 -1138 l-35 -183 -83 -107 c-46
-60 -136 -178 -200 -264 -208 -278 -336 -370 -792 -568 -288 -125 -384 -192
-510 -355 -98 -126 -155 -230 -219 -391 -64 -164 -135 -458 -153 -627 -6 -67
-7 -68 -36 -68 -36 0 -83 -24 -93 -47 -5 -10 -10 -160 -13 -334 l-4 -315 25
-30 25 -29 264 -6 c144 -4 399 -7 565 -8 l301 -1 24 29 c24 27 25 37 31 217
10 277 9 430 -4 458 -15 32 7 97 67 200 70 120 171 218 347 337 302 204 570
409 650 498 71 79 112 164 146 306 28 115 106 499 131 642 20 122 20 123 84
212 76 107 148 244 171 325 11 38 16 82 13 127 -3 58 -8 74 -34 105 -16 21
-47 46 -68 57 -36 19 -38 22 -32 56 19 123 28 330 24 545 -5 266 -13 303 -70
351 -38 32 -117 35 -164 6z m107 -262 c11 -144 7 -292 -12 -509 -14 -164 -15
-167 -54 -180 -43 -14 -146 -81 -212 -138 -29 -24 -53 -39 -53 -33 0 23 74
364 115 531 77 309 162 517 197 482 5 -5 13 -73 19 -153z m83 -820 c40 -32 34
-62 -31 -139 l-57 -68 -38 32 c-21 17 -38 37 -38 43 0 14 117 153 129 153 5 0
20 -9 35 -21z m-300 -173 c7 -28 168 -176 191 -176 22 0 20 -5 -32 -78 -104
-148 -288 -363 -495 -578 -127 -131 -138 -154 -97 -195 37 -37 68 -20 182 98
57 59 144 152 192 206 49 53 90 95 93 93 10 -11 -107 -548 -137 -628 -12 -31
-37 -76 -56 -101 -67 -87 -289 -261 -627 -491 -272 -185 -394 -321 -478 -530
-19 -46 -35 -72 -47 -75 -10 -2 -195 0 -412 4 l-394 7 7 67 c12 114 62 341
105 471 76 235 188 430 320 559 90 88 162 133 316 197 198 83 437 203 539 271
135 90 249 206 390 397 216 291 395 504 427 506 4 0 10 -11 13 -24z m-1470
-2583 l196 -6 -2 -249 -3 -249 -345 1 c-190 0 -409 3 -487 7 l-143 6 0 249 0
248 293 0 c162 0 382 -3 491 -7z"/>
</g>
</svg>
