<!DOCTYPE svg PUBLIC "-//W3C//DTD SVG 20010904//EN" "http://www.w3.org/TR/2001/REC-SVG-20010904/DTD/svg10.dtd">
<svg version="1.0" xmlns="http://www.w3.org/2000/svg" width="14px" height="15px" viewBox="0 0 140 150" preserveAspectRatio="xMidYMid meet">
<g id="layer101" fill="#000000" stroke="none">
 <path d="M14 136 c-4 -10 2 -26 15 -39 l21 -23 -21 -21 c-31 -30 -14 -51 17 -22 l24 22 23 -21 c28 -26 33 -27 41 -7 3 9 -3 24 -15 36 l-20 20 20 26 c29 36 14 50 -19 18 -22 -21 -30 -24 -36 -13 -5 7 -17 19 -26 27 -15 11 -19 11 -24 -3z"/>
 </g>
<g id="layer102" fill="#ffffff" stroke="none">
 </g>

</svg>